<?xml version="1.0" encoding="UTF-8"?><svg id="Camada_2" xmlns="http://www.w3.org/2000/svg" viewBox="0 0 721.78 117.76"><defs><style>.cls-1{fill:#fff;stroke-width:0px;}</style></defs><g id="Camada_1-2"><path class="cls-1" d="M32.98,15.32c-.46-1.86-1.14-3.58-2.02-5.14-.88-1.56-1.96-2.96-3.23-4.19-1.27-1.23-2.71-2.28-4.31-3.14-1.6-.86-3.36-1.51-5.27-1.97-1.91-.45-3.95-.68-6.13-.68H0v42.18h12.02c2.18,0,4.22-.22,6.13-.68,1.91-.45,3.67-1.1,5.27-1.97,1.6-.86,3.04-1.9,4.31-3.14,1.27-1.23,2.35-2.63,3.23-4.19s1.55-3.27,2.02-5.14c.47-1.86.7-3.86.7-5.97s-.23-4.1-.7-5.97ZM30.78,26.68c-.42,1.67-1.02,3.22-1.8,4.62-.79,1.4-1.74,2.66-2.88,3.77-1.13,1.1-2.41,2.04-3.84,2.8-1.43.76-3,1.34-4.72,1.74-1.71.41-3.55.61-5.5.61H2.27v1.06l-1.06-1.06h1.06V2.35h-1.06l1.06-1.06v1.06h9.76c1.95,0,3.79.21,5.5.61,1.72.4,3.29.98,4.72,1.74,1.43.77,2.71,1.7,3.84,2.81,1.14,1.1,2.09,2.36,2.88,3.77.78,1.4,1.38,2.94,1.8,4.62.41,1.68.62,3.47.62,5.39s-.21,3.71-.62,5.39Z"/><path class="cls-1" d="M70.59.2h-3.13l-17.86,42.18h2.42L69,2.25l16.81,40.12h2.46L70.59.2Z"/><path class="cls-1" d="M140.88.2v39.78L111.13.2h-3.57v42.18h2.26V2.26l29.94,40.11h3.38V.2h-2.26Z"/><path class="cls-1" d="M167.47.2v42.18h2.3V.2h-2.3Z"/><path class="cls-1" d="M196.42,40.22v-17.82h22.56v-2.15h-22.56V2.35h24.33V.2h-26.63v42.18h27.22v-2.15h-24.92Z"/><path class="cls-1" d="M246.32,40.22V.2h-2.3v42.18h14.63l1.24-2.15h-13.57Z"/><polygon class="cls-1" points="251.48 69.78 291.69 0 288.56 0 248.3 69.78 251.48 69.78"/><path class="cls-1" d="M288.78,21.63l-3.69,6.4h20.42v-6.4h-16.74ZM283.96,57.39v-11.5h19.8v-6.28h-19.8v-9.62l-7.13,12.38v21.42h29.24v-6.39h-22.11Z"/><path class="cls-1" d="M359.75,47.32c-.46-1.18-1.1-2.18-1.89-3.02-.8-.84-1.72-1.53-2.78-2.08-1.06-.55-2.18-1.01-3.36-1.37-1.18-.37-2.41-.66-3.66-.88-1.26-.22-2.48-.42-3.66-.58l-2.03-.3c-1.1-.17-2.12-.34-3.06-.49-.94-.16-1.79-.34-2.57-.53-.78-.19-1.46-.42-2.07-.67-.61-.26-1.11-.58-1.52-.93-.41-.36-.72-.78-.94-1.28-.22-.49-.32-1.07-.32-1.74,0-.74.13-1.42.39-2.02.27-.62.63-1.17,1.1-1.65.46-.48,1.02-.9,1.66-1.25.64-.36,1.34-.66,2.09-.89.74-.23,1.53-.42,2.34-.53.82-.12,1.65-.18,2.49-.18,1.5,0,2.87.18,4.1.53,1.23.35,2.29.86,3.17,1.52.88.66,1.56,1.45,2.05,2.38.49.94.73,1.98.73,3.14h6.91c0-2.14-.39-4.06-1.18-5.76-.79-1.7-1.92-3.15-3.4-4.34-1.47-1.18-3.25-2.09-5.33-2.72-2.07-.64-4.4-.95-6.98-.95-1.58,0-3.1.12-4.56.37-1.46.25-2.82.61-4.1,1.1-1.27.49-2.43,1.1-3.48,1.82-1.05.73-1.94,1.57-2.68,2.53-.74.95-1.32,2.03-1.73,3.22-.41,1.19-.61,2.5-.61,3.93,0,1.54.22,2.86.68,3.97.46,1.1,1.08,2.06,1.87,2.85.79.79,1.71,1.45,2.76,1.97,1.05.52,2.16.95,3.34,1.3,1.18.34,2.4.62,3.66.83,1.25.22,2.47.4,3.66.57l2.59.4c.98.14,1.91.3,2.79.44.88.15,1.69.32,2.43.5.74.18,1.4.42,1.98.69.58.26,1.07.59,1.49.98.42.38.73.85.94,1.38s.32,1.17.32,1.9c0,1.2-.29,2.24-.87,3.12-.58.87-1.38,1.6-2.38,2.17-1,.58-2.16,1-3.49,1.28-1.32.28-2.74.42-4.24.42-1.75,0-3.33-.18-4.74-.54-1.4-.36-2.6-.88-3.58-1.57-.98-.69-1.74-1.53-2.26-2.51-.53-.98-.79-2.1-.79-3.34h-6.91c0,2.23.42,4.22,1.24,5.98.82,1.76,2.02,3.25,3.6,4.46,1.57,1.21,3.5,2.13,5.77,2.76,2.27.63,4.86.95,7.74.95,2.66,0,5.08-.27,7.27-.82,2.2-.55,4.08-1.38,5.66-2.46,1.58-1.09,2.8-2.46,3.67-4.1.88-1.65,1.31-3.57,1.31-5.75,0-1.62-.23-3.02-.69-4.21Z"/><path class="cls-1" d="M413.65,29.81c-.76-1.67-1.82-3.12-3.18-4.34-1.36-1.21-2.98-2.15-4.88-2.82-1.89-.68-3.96-1.02-6.21-1.02h-19.68v42.15h7.14v-14.66h12.54c2.24,0,4.3-.34,6.19-1.02,1.9-.68,3.52-1.63,4.88-2.85,1.36-1.22,2.42-2.67,3.18-4.37.76-1.69,1.14-3.54,1.14-5.54s-.38-3.86-1.14-5.54ZM407.04,38.45c-.41.91-.99,1.7-1.75,2.34-.77.65-1.69,1.14-2.77,1.49-1.08.34-2.3.51-3.64.51h-12.04v1l-.78-1h.78v-14.81h-.5l.5-.64v.64h12.14c1.34,0,2.54.17,3.61.5s1.98.83,2.74,1.46c.75.64,1.33,1.42,1.73,2.33.39.92.59,1.94.59,3.07s-.2,2.18-.61,3.1Z"/><path class="cls-1" d="M434.3,21.63v42.15h7.14V21.63h-7.14Z"/><path class="cls-1" d="M492.72,21.63v35.18l-18.98-35.18h-11.9v42.15h6.91V26.91l19.87,36.87h10.99V21.63h-6.9Z"/><path class="cls-1" d="M555.22,36.73c-.46-1.86-1.14-3.58-2.02-5.14-.88-1.57-1.95-2.96-3.22-4.19-1.27-1.24-2.7-2.28-4.3-3.14-1.6-.86-3.35-1.5-5.25-1.96-1.9-.45-3.93-.68-6.08-.68h-14.33v42.15h14.33c2.15,0,4.18-.22,6.08-.67,1.9-.46,3.65-1.11,5.25-1.96,1.59-.86,3.02-1.9,4.3-3.14,1.26-1.23,2.34-2.63,3.22-4.19.88-1.56,1.55-3.27,2.02-5.14.46-1.86.69-3.86.69-5.98s-.23-4.11-.69-5.98ZM548.32,46.99c-.3,1.32-.73,2.53-1.3,3.61-.56,1.09-1.26,2.05-2.1,2.9-.84.84-1.79,1.54-2.86,2.12-1.07.58-2.26,1.01-3.55,1.3-1.3.3-2.7.44-4.22.44h-7.26v1.06l-1.06-1.06h1.06v-29.3h-1.06l1.06-1.06v1.06h7.26c1.51,0,2.92.14,4.22.44,1.3.3,2.48.73,3.55,1.3,1.07.58,2.02,1.28,2.86,2.12.83.84,1.54,1.81,2.1,2.89.57,1.09,1,2.29,1.3,3.62.3,1.32.46,2.74.46,4.28s-.15,2.96-.46,4.28Z"/><path class="cls-1" d="M614.94,36.53c-.45-1.93-1.08-3.71-1.9-5.34-.82-1.62-1.83-3.09-3.02-4.38-1.18-1.3-2.52-2.38-4.01-3.28-1.49-.9-3.11-1.58-4.88-2.06-1.76-.48-3.63-.72-5.62-.72s-3.86.24-5.62.72c-1.76.48-3.38,1.17-4.87,2.06-1.49.9-2.82,1.98-4,3.28-1.18,1.29-2.18,2.75-3.02,4.38s-1.47,3.41-1.91,5.34c-.44,1.93-.66,3.99-.66,6.18s.22,4.25.66,6.18c.44,1.93,1.08,3.7,1.91,5.34.83,1.62,1.83,3.08,3.02,4.38,1.18,1.29,2.51,2.38,4,3.28,1.49.9,3.11,1.58,4.87,2.06,1.75.48,3.62.72,5.62.72s3.86-.24,5.62-.72c1.77-.49,3.39-1.17,4.88-2.06s2.82-1.99,4.01-3.28c1.18-1.3,2.19-2.75,3.02-4.38.82-1.63,1.46-3.41,1.9-5.34.44-1.94.66-3.99.66-6.18s-.22-4.26-.66-6.18ZM608.06,47.25c-.26,1.4-.64,2.68-1.14,3.83-.51,1.16-1.14,2.18-1.88,3.06-.75.9-1.6,1.64-2.56,2.25-.96.62-2.02,1.07-3.18,1.38-1.16.3-2.42.46-3.78.46s-2.61-.16-3.77-.46c-1.17-.31-2.22-.77-3.18-1.38-.96-.61-1.81-1.35-2.55-2.25-.74-.89-1.37-1.9-1.87-3.06-.5-1.15-.89-2.43-1.15-3.83-.27-1.4-.4-2.91-.4-4.54s.13-3.14.4-4.54c.26-1.41.65-2.68,1.15-3.83.5-1.16,1.13-2.18,1.87-3.07.74-.89,1.59-1.63,2.55-2.25.96-.61,2.02-1.06,3.18-1.38,1.16-.31,2.42-.46,3.77-.46s2.62.15,3.78.46c1.17.31,2.22.77,3.18,1.38.96.62,1.81,1.36,2.56,2.25.74.89,1.37,1.91,1.88,3.07.5,1.15.89,2.42,1.14,3.83.26,1.4.39,2.91.39,4.54s-.13,3.14-.39,4.54Z"/><path class="cls-1" d="M642.71,57.39V21.63h-7.14v42.15h28.06v-6.39h-20.93Z"/><path class="cls-1" d="M706.63,21.63h-10.42l-15.36,42.15h7.42l3.58-10.18,2.18-6.18,7.31-20.78,7.2,20.78,2.14,6.18,3.53,10.18h7.58l-15.15-42.15Z"/><path class="cls-1" d="M110.31,117.3h-2.46v-21.62h2.46v21.62Z"/><path class="cls-1" d="M135.21,117.3h-3.94l-12.55-20.01.05-.02v20.02h-2.4v-21.62h4.26l12.22,19.43-.04.02v-19.44h2.41v21.62Z"/><path class="cls-1" d="M159.92,95.68l-8.14,21.62h-3.64l-8.04-21.62h2.62l7.68,20.77h-.81l7.78-20.77h2.56Z"/><path class="cls-1" d="M179.08,95.68v2.29h-12.16l.36-.38v8.15l-.36-.38h11.25v2.3h-11.25l.36-.38v8.1l-.36-.38h12.46v2.29h-14.56v-21.62h14.26Z"/><path class="cls-1" d="M196.17,95.7c1.01.31,1.87.76,2.59,1.35.72.58,1.28,1.29,1.67,2.13s.59,1.77.59,2.82h-2.4c0-.69-.14-1.31-.43-1.87-.29-.56-.69-1.03-1.21-1.42s-1.13-.69-1.84-.9c-.71-.21-1.5-.32-2.35-.32-.5,0-1,.04-1.48.11-.48.08-.94.19-1.38.34s-.84.34-1.21.57c-.37.23-.69.49-.96.79-.27.3-.48.64-.63,1.02s-.23.79-.23,1.23.07.79.2,1.1.32.58.57.81c.25.23.54.42.89.58s.74.3,1.17.41c.43.12.9.22,1.4.31.5.09,1.03.18,1.58.27l1.25.2c.58.09,1.18.19,1.79.31.61.12,1.21.26,1.79.45.58.18,1.13.41,1.65.68.52.27.97.62,1.35,1.03.39.41.69.91.91,1.49.22.58.34,1.26.34,2.06,0,1.08-.21,2.03-.64,2.85s-1.03,1.5-1.8,2.04c-.77.54-1.69.95-2.76,1.23s-2.25.41-3.53.41c-1.38,0-2.62-.16-3.73-.47-1.11-.31-2.05-.77-2.82-1.36-.78-.59-1.37-1.32-1.79-2.18-.42-.86-.62-1.84-.62-2.94h2.41c0,.74.16,1.4.46,1.98s.75,1.08,1.32,1.48c.57.41,1.26.72,2.06.93s1.7.32,2.69.32c.89,0,1.71-.09,2.48-.27.77-.18,1.44-.45,2.01-.8.57-.36,1.02-.81,1.35-1.35.33-.54.5-1.18.5-1.91,0-.46-.07-.87-.2-1.21-.14-.34-.33-.64-.58-.89s-.55-.46-.9-.64c-.35-.17-.73-.32-1.15-.44-.42-.12-.87-.22-1.35-.31-.48-.09-.97-.17-1.48-.25l-1.47-.24c-.58-.09-1.18-.19-1.79-.3-.61-.11-1.2-.25-1.78-.42-.58-.17-1.12-.39-1.63-.64-.51-.26-.95-.58-1.33-.96s-.68-.85-.91-1.38c-.22-.54-.34-1.17-.34-1.91,0-.69.1-1.32.3-1.9.2-.58.48-1.11.84-1.58.36-.47.8-.89,1.3-1.24.51-.36,1.07-.66,1.68-.9.61-.24,1.28-.42,1.98-.55.71-.12,1.44-.19,2.2-.19,1.23,0,2.35.16,3.36.47Z"/><path class="cls-1" d="M223.29,97.97h-7.9l.36-.36v19.69h-2.46v-19.69l.36.36h-7.89v-2.29h17.53v2.29Z"/><path class="cls-1" d="M230.65,117.3h-2.46v-21.62h2.46v21.62Z"/><path class="cls-1" d="M261.25,95.68v21.62h-2.46v-20.32h.39l-8.57,20.32h-3.42l-8.48-20.32h.39v20.32h-2.4v-21.62h4.07l8.53,20.51h-.73l8.62-20.51h4.07Z"/><path class="cls-1" d="M281.55,95.68v2.29h-12.16l.36-.38v8.15l-.36-.38h11.25v2.3h-11.25l.36-.38v8.1l-.36-.38h12.46v2.29h-14.56v-21.62h14.26Z"/><path class="cls-1" d="M306.04,117.3h-3.94l-12.55-20.01.05-.02v20.02h-2.4v-21.62h4.26l12.22,19.43-.04.02v-19.44h2.41v21.62Z"/><path class="cls-1" d="M328.45,97.97h-7.9l.36-.36v19.69h-2.46v-19.69l.36.36h-7.89v-2.29h17.53v2.29Z"/><path class="cls-1" d="M332.39,103.33c.22-.99.53-1.9.94-2.74s.92-1.58,1.51-2.24c.59-.66,1.26-1.22,2-1.69.74-.46,1.56-.82,2.44-1.06.88-.25,1.82-.37,2.81-.37s1.94.12,2.82.37c.88.25,1.69.6,2.44,1.06.74.46,1.41,1.02,2,1.69s1.09,1.41,1.51,2.24.73,1.75.95,2.74c.22.99.33,2.04.33,3.16s-.11,2.17-.33,3.16c-.22.99-.54,1.9-.95,2.74s-.92,1.58-1.51,2.24c-.59.66-1.26,1.22-2,1.69-.74.46-1.56.82-2.44,1.06-.88.25-1.82.37-2.82.37s-1.93-.12-2.81-.37c-.88-.25-1.69-.6-2.44-1.06-.74-.46-1.41-1.02-2-1.69-.59-.66-1.1-1.41-1.51-2.24s-.73-1.75-.94-2.74-.33-2.04-.33-3.16.11-2.17.33-3.16ZM334.77,109.07c.16.8.39,1.53.69,2.2.3.67.67,1.26,1.11,1.78.44.52.93.96,1.5,1.32.56.36,1.18.63,1.86.82s1.4.28,2.17.28,1.5-.09,2.18-.28,1.3-.46,1.86-.82,1.06-.8,1.5-1.32c.44-.52.81-1.11,1.12-1.78s.53-1.4.69-2.2c.16-.8.24-1.66.24-2.58s-.08-1.78-.24-2.58c-.16-.8-.39-1.53-.69-2.2s-.67-1.26-1.12-1.78c-.44-.52-.94-.96-1.5-1.32s-1.18-.63-1.86-.82c-.68-.19-1.4-.28-2.18-.28s-1.5.09-2.17.28c-.68.19-1.3.46-1.86.82-.56.36-1.06.8-1.5,1.32-.44.52-.8,1.11-1.11,1.78-.3.67-.53,1.4-.69,2.2-.16.8-.24,1.66-.24,2.58s.08,1.78.24,2.58Z"/><path class="cls-1" d="M369.01,95.7c1.01.31,1.87.76,2.59,1.35.72.58,1.28,1.29,1.67,2.13s.59,1.77.59,2.82h-2.4c0-.69-.14-1.31-.43-1.87-.29-.56-.69-1.03-1.21-1.42s-1.13-.69-1.84-.9c-.71-.21-1.5-.32-2.35-.32-.5,0-1,.04-1.48.11-.48.08-.94.19-1.38.34s-.84.34-1.21.57c-.37.23-.69.49-.96.79-.27.3-.48.64-.63,1.02s-.23.79-.23,1.23.07.79.2,1.1.32.58.57.81c.25.23.54.42.89.58s.74.3,1.17.41c.43.12.9.22,1.4.31.5.09,1.03.18,1.58.27l1.25.2c.58.09,1.18.19,1.79.31.61.12,1.21.26,1.79.45.58.18,1.13.41,1.65.68.52.27.97.62,1.35,1.03.39.41.69.91.91,1.49.22.58.34,1.26.34,2.06,0,1.08-.21,2.03-.64,2.85s-1.03,1.5-1.8,2.04c-.77.54-1.69.95-2.76,1.23s-2.25.41-3.53.41c-1.38,0-2.62-.16-3.73-.47-1.11-.31-2.05-.77-2.82-1.36-.78-.59-1.37-1.32-1.79-2.18-.42-.86-.62-1.84-.62-2.94h2.41c0,.74.16,1.4.46,1.98s.75,1.08,1.32,1.48c.57.41,1.26.72,2.06.93s1.7.32,2.69.32c.89,0,1.71-.09,2.48-.27.77-.18,1.44-.45,2.01-.8.57-.36,1.02-.81,1.35-1.35.33-.54.5-1.18.5-1.91,0-.46-.07-.87-.2-1.21-.14-.34-.33-.64-.58-.89s-.55-.46-.9-.64c-.35-.17-.73-.32-1.15-.44-.42-.12-.87-.22-1.35-.31-.48-.09-.97-.17-1.48-.25l-1.47-.24c-.58-.09-1.18-.19-1.79-.3-.61-.11-1.2-.25-1.78-.42-.58-.17-1.12-.39-1.63-.64-.51-.26-.95-.58-1.33-.96s-.68-.85-.91-1.38c-.22-.54-.34-1.17-.34-1.91,0-.69.1-1.32.3-1.9.2-.58.48-1.11.84-1.58.36-.47.8-.89,1.3-1.24.51-.36,1.07-.66,1.68-.9.61-.24,1.28-.42,1.98-.55.71-.12,1.44-.19,2.2-.19,1.23,0,2.35.16,3.36.47Z"/><path class="cls-1" d="M392.44,117.3h-2.46v-21.62h2.46v21.62Z"/><path class="cls-1" d="M423.04,95.68v21.62h-2.46v-20.32h.39l-8.57,20.32h-3.42l-8.48-20.32h.39v20.32h-2.4v-21.62h4.07l8.53,20.51h-.73l8.62-20.51h4.07Z"/><path class="cls-1" d="M429.15,103.33c.22-.99.53-1.9.94-2.74s.92-1.58,1.51-2.24c.59-.66,1.26-1.22,2-1.69.74-.46,1.56-.82,2.44-1.06.88-.25,1.82-.37,2.81-.37s1.94.12,2.82.37c.88.25,1.69.6,2.44,1.06.74.46,1.41,1.02,2,1.69s1.09,1.41,1.51,2.24.73,1.75.95,2.74c.22.99.33,2.04.33,3.16s-.11,2.17-.33,3.16c-.22.99-.54,1.9-.95,2.74s-.92,1.58-1.51,2.24c-.59.66-1.26,1.22-2,1.69-.74.46-1.56.82-2.44,1.06-.88.25-1.82.37-2.82.37s-1.93-.12-2.81-.37c-.88-.25-1.69-.6-2.44-1.06-.74-.46-1.41-1.02-2-1.69-.59-.66-1.1-1.41-1.51-2.24s-.73-1.75-.94-2.74-.33-2.04-.33-3.16.11-2.17.33-3.16ZM431.53,109.07c.16.8.39,1.53.69,2.2.3.67.67,1.26,1.11,1.78.44.52.93.96,1.5,1.32.56.36,1.18.63,1.86.82s1.4.28,2.17.28,1.5-.09,2.18-.28,1.3-.46,1.86-.82,1.06-.8,1.5-1.32c.44-.52.81-1.11,1.12-1.78s.53-1.4.69-2.2c.16-.8.24-1.66.24-2.58s-.08-1.78-.24-2.58c-.16-.8-.39-1.53-.69-2.2s-.67-1.26-1.12-1.78c-.44-.52-.94-.96-1.5-1.32s-1.18-.63-1.86-.82c-.68-.19-1.4-.28-2.18-.28s-1.5.09-2.17.28c-.68.19-1.3.46-1.86.82-.56.36-1.06.8-1.5,1.32-.44.52-.8,1.11-1.11,1.78-.3.67-.53,1.4-.69,2.2-.16.8-.24,1.66-.24,2.58s.08,1.78.24,2.58Z"/><path class="cls-1" d="M464.88,95.68c1,0,1.92.14,2.77.42.85.28,1.58.67,2.2,1.17s1.1,1.09,1.45,1.78.52,1.43.52,2.24c0,.7-.13,1.35-.39,1.96-.26.6-.62,1.13-1.07,1.57-.45.44-.99.79-1.61,1.04-.62.25-1.29.38-2.01.38v-.08c.88,0,1.68.13,2.42.39.73.26,1.37.63,1.9,1.1.53.47.95,1.03,1.24,1.68.3.65.45,1.36.45,2.14,0,.85-.18,1.63-.54,2.35-.36.71-.86,1.33-1.51,1.84-.65.51-1.42.91-2.31,1.2-.9.29-1.88.43-2.96.43h-10.71v-21.62h10.17ZM466.76,105.05c.54-.18,1-.44,1.39-.77.39-.33.69-.72.9-1.18s.32-.96.32-1.51-.11-1.05-.33-1.49c-.22-.45-.53-.83-.93-1.14s-.89-.56-1.46-.73-1.2-.26-1.9-.26h-7.67l.09-.09v7.54l-.09-.09h7.91c.64,0,1.24-.09,1.78-.28ZM457.08,115.01h8.01c.83,0,1.57-.08,2.21-.25.64-.17,1.19-.42,1.63-.74.44-.33.78-.73,1-1.2s.34-1.02.34-1.64-.11-1.13-.33-1.58c-.22-.46-.54-.84-.98-1.15-.43-.31-.96-.54-1.6-.7-.64-.16-1.38-.24-2.22-.24h-8.08l.09-.09v7.69l-.09-.09Z"/><path class="cls-1" d="M480.52,117.3h-2.46v-21.62h2.46v21.62Z"/><path class="cls-1" d="M489.03,95.68v19.71l-.36-.38h11.86v2.29h-13.96v-21.62h2.46Z"/><path class="cls-1" d="M508.35,117.3h-2.46v-21.62h2.46v21.62Z"/><path class="cls-1" d="M513.25,117.3l8.44-21.62h3.64l8.34,21.62h-2.62l-7.97-20.77h.81l-8.08,20.77h-2.56ZM517,109.24h13.11v2.24h-13.11v-2.24ZM527.43,89.72h-2.37l-2.37,4.83h1.72l3.02-4.83Z"/><path class="cls-1" d="M538.58,117.3v-21.62h10.12c1.08,0,2.07.15,2.96.46.9.31,1.67.74,2.31,1.29.64.55,1.15,1.21,1.5,1.98.36.77.54,1.62.54,2.55,0,.85-.15,1.63-.46,2.32-.3.7-.74,1.3-1.3,1.79s-1.23.88-2.01,1.15-1.65.4-2.59.4v-.02c.43,0,.84.08,1.23.23.39.15.76.37,1.11.67.35.29.68.66.98,1.08.3.43.58.92.82,1.47l2.79,6.22h-2.71l-2.78-6.21c-.2-.44-.43-.82-.69-1.13s-.57-.58-.92-.78c-.35-.2-.75-.36-1.19-.45-.45-.1-.95-.15-1.52-.15h-6.15l.4-.52v9.25h-2.46ZM541.04,97.65v9.14l-.4-.51h7.76c.79,0,1.51-.1,2.14-.29.64-.19,1.18-.47,1.62-.83.44-.36.78-.8,1.02-1.32.24-.52.36-1.1.36-1.75s-.12-1.21-.35-1.72-.57-.94-1.02-1.29-.98-.62-1.62-.81-1.36-.28-2.17-.28h-7.6l.26-.32Z"/><path class="cls-1" d="M564.59,117.3h-2.46v-21.62h2.46v21.62Z"/><path class="cls-1" d="M570.71,103.33c.22-.99.53-1.9.94-2.74s.92-1.58,1.51-2.24c.59-.66,1.26-1.22,2-1.69.74-.46,1.56-.82,2.44-1.06.88-.25,1.82-.37,2.81-.37s1.94.12,2.82.37c.88.25,1.69.6,2.44,1.06.74.46,1.41,1.02,2,1.69s1.09,1.41,1.51,2.24.73,1.75.95,2.74c.22.99.33,2.04.33,3.16s-.11,2.17-.33,3.16c-.22.99-.54,1.9-.95,2.74s-.92,1.58-1.51,2.24c-.59.66-1.26,1.22-2,1.69-.74.46-1.56.82-2.44,1.06-.88.25-1.82.37-2.82.37s-1.93-.12-2.81-.37c-.88-.25-1.69-.6-2.44-1.06-.74-.46-1.41-1.02-2-1.69-.59-.66-1.1-1.41-1.51-2.24s-.73-1.75-.94-2.74-.33-2.04-.33-3.16.11-2.17.33-3.16ZM573.09,109.07c.16.8.39,1.53.69,2.2.3.67.67,1.26,1.11,1.78.44.52.93.96,1.5,1.32.56.36,1.18.63,1.86.82s1.4.28,2.17.28,1.5-.09,2.18-.28,1.3-.46,1.86-.82,1.06-.8,1.5-1.32c.44-.52.81-1.11,1.12-1.78s.53-1.4.69-2.2c.16-.8.24-1.66.24-2.58s-.08-1.78-.24-2.58c-.16-.8-.39-1.53-.69-2.2s-.67-1.26-1.12-1.78c-.44-.52-.94-.96-1.5-1.32s-1.18-.63-1.86-.82c-.68-.19-1.4-.28-2.18-.28s-1.5.09-2.17.28c-.68.19-1.3.46-1.86.82-.56.36-1.06.8-1.5,1.32-.44.52-.8,1.11-1.11,1.78-.3.67-.53,1.4-.69,2.2-.16.8-.24,1.66-.24,2.58s.08,1.78.24,2.58Z"/><path class="cls-1" d="M607.33,95.7c1.01.31,1.87.76,2.59,1.35.72.58,1.28,1.29,1.67,2.13s.59,1.77.59,2.82h-2.4c0-.69-.14-1.31-.43-1.87-.29-.56-.69-1.03-1.21-1.42s-1.13-.69-1.84-.9c-.71-.21-1.5-.32-2.35-.32-.5,0-1,.04-1.48.11-.48.08-.94.19-1.38.34s-.84.34-1.21.57c-.37.23-.69.49-.96.79-.27.3-.48.64-.63,1.02s-.23.79-.23,1.23.07.79.2,1.1.32.58.57.81c.25.23.54.42.89.58s.74.3,1.17.41c.43.12.9.22,1.4.31.5.09,1.03.18,1.58.27l1.25.2c.58.09,1.18.19,1.79.31.61.12,1.21.26,1.79.45.58.18,1.13.41,1.65.68.52.27.97.62,1.35,1.03.39.41.69.91.91,1.49.22.58.34,1.26.34,2.06,0,1.08-.21,2.03-.64,2.85s-1.03,1.5-1.8,2.04c-.77.54-1.69.95-2.76,1.23s-2.25.41-3.53.41c-1.38,0-2.62-.16-3.73-.47-1.11-.31-2.05-.77-2.82-1.36-.78-.59-1.37-1.32-1.79-2.18-.42-.86-.62-1.84-.62-2.94h2.41c0,.74.16,1.4.46,1.98s.75,1.08,1.32,1.48c.57.41,1.26.72,2.06.93s1.7.32,2.69.32c.89,0,1.71-.09,2.48-.27.77-.18,1.44-.45,2.01-.8.57-.36,1.02-.81,1.35-1.35.33-.54.5-1.18.5-1.91,0-.46-.07-.87-.2-1.21-.14-.34-.33-.64-.58-.89s-.55-.46-.9-.64c-.35-.17-.73-.32-1.15-.44-.42-.12-.87-.22-1.35-.31-.48-.09-.97-.17-1.48-.25l-1.47-.24c-.58-.09-1.18-.19-1.79-.3-.61-.11-1.2-.25-1.78-.42-.58-.17-1.12-.39-1.63-.64-.51-.26-.95-.58-1.33-.96s-.68-.85-.91-1.38c-.22-.54-.34-1.17-.34-1.91,0-.69.1-1.32.3-1.9.2-.58.48-1.11.84-1.58.36-.47.8-.89,1.3-1.24.51-.36,1.07-.66,1.68-.9.61-.24,1.28-.42,1.98-.55.71-.12,1.44-.19,2.2-.19,1.23,0,2.35.16,3.36.47Z"/></g></svg>